PathFileType	4	(X/Y/Z)	/Users/itak/Documents/Research/Walk-IL/dataset/trc/00408_00012.trc
DataRate	CameraRate	NumFrames	NumMarkers	Units	OrigDataRate	OrigDataStartFrame	OrigNumFrames
100.000000	100.000000	4	55	mm	100.000000	252	673
Frame#	Time	RPSI			LPSI			L3			STRN			T10			C7			CLAV			RBAK			LBAK			LSHO			LUPA			LAEL			LAOL			LWTS			LWPS			LFRA			LHPS			LHTS			RSHO			RUPA			RAEL			RAOL			RWTS			RWPS			RFRA			RIFD			RHPS			RBHD			LFHD			RFHD			LBHD			LHIP			RHIP			RASI			LASI			LKNE			LTHI			LANK			LTIP			LTOE			LMT1			LMT5			LHEE			RKNE			RTHI			RANK			RTIP			RTOE			RMT1			RMT5			RHEE			RHTS			LIFD			*53			*54			
		X1	Y1	Z1	X2	Y2	Z2	X3	Y3	Z3	X4	Y4	Z4	X5	Y5	Z5	X6	Y6	Z6	X7	Y7	Z7	X8	Y8	Z8	X9	Y9	Z9	X10	Y10	Z10	X11	Y11	Z11	X12	Y12	Z12	X13	Y13	Z13	X14	Y14	Z14	X15	Y15	Z15	X16	Y16	Z16	X17	Y17	Z17	X18	Y18	Z18	X19	Y19	Z19	X20	Y20	Z20	X21	Y21	Z21	X22	Y22	Z22	X23	Y23	Z23	X24	Y24	Z24	X25	Y25	Z25	X26	Y26	Z26	X27	Y27	Z27	X28	Y28	Z28	X29	Y29	Z29	X30	Y30	Z30	X31	Y31	Z31	X32	Y32	Z32	X33	Y33	Z33	X34	Y34	Z34	X35	Y35	Z35	X36	Y36	Z36	X37	Y37	Z37	X38	Y38	Z38	X39	Y39	Z39	X40	Y40	Z40	X41	Y41	Z41	X42	Y42	Z42	X43	Y43	Z43	X44	Y44	Z44	X45	Y45	Z45	X46	Y46	Z46	X47	Y47	Z47	X48	Y48	Z48	X49	Y49	Z49	X50	Y50	Z50	X51	Y51	Z51	X52	Y52	Z52	X53	Y53	Z53	X54	Y54	Z54	X55	Y55	Z55	

253	2.52	-852.6068725585938	965.4165649414062	138.7928009033203	-984.4680786132812	962.5369262695312	112.8406066894531	-908.9765625	1051.078491210938	123.5984191894531	-837.1110229492188	1196.620239257812	-110.2258987426758	-917.0523681640625	1153.117065429688	126.5271148681641	-906.5601806640625	1400.787475585938	82.55915069580078	-849.696533203125	1316.689697265625	-60.06912994384766	-865.0557861328125	1253.683959960938	149.6524353027344	-1008.138916015625	1369.603149414062	63.43911361694336	-1026.69677734375	1381.016357421875	-36.57089996337891	-1106.603515625	1271.8916015625	-16.89562225341797	-1150.57275390625	1080.131103515625	-7.054322242736816	-1102.665405273438	1061.517333984375	61.94419479370117	-1121.016479492188	849.7008056640625	-49.3501091003418	-1193.78857421875	854.8743286132812	-12.18019676208496	-1171.92138671875	977.5986328125	-6.72578239440918	-1194.697631835938	767.8540649414062	-1.8470299243927	-1149.17578125	751.2506103515625	-43.37026214599609	-743.1996459960938	1374.572875976562	87.80149841308594	-698.7223510742188	1311.078491210938	128.8015899658203	-661.5947265625	1051.943237304688	161.17041015625	-753.7161254882812	1038.895874023438	140.7943725585938	-616.7227172851562	890.2711181640625	-21.99221038818359	-570.8561401367188	867.413330078125	31.54207420349121	-630.8528442382812	995.7285766601562	130.9020690917969	-586.7820434570312	727.702880859375	-76.78404998779297	-557.7437744140625	784.9972534179688	-1.218892693519592	-811.3729858398438	1568.680908203125	99.66928863525391	-851.9940795898438	1599.531982421875	-93.38260650634766	-755.7308349609375	1586.18359375	-20.91605377197266	-948.02685546875	1583.39990234375	18.50403785705566	-1079.791259765625	975.9313354492188	5.152426242828369	-723.236083984375	933.8211669921875	84.28121948242188	-743.3670654296875	945.46875	-57.55267333984375	-1000.567565917969	962.0615234375	-103.3239212036133	-1049.964111328125	512.7537231445312	-218.6804809570312	-1059.460571289062	636.3422241210938	-165.0362243652344	-1163.516845703125	159.8302764892578	43.20231246948242	-1120.945434570312	325.9185180664062	-94.94427490234375	-1099.554931640625	59.38509750366211	-138.0531158447266	-1069.405639648438	82.57689666748047	-63.3038215637207	-1175.0224609375	103.0323791503906	-68.98057556152344	-1111.337158203125	163.1529235839844	85.044921875	-838.2423095703125	449.527587890625	-10.00533485412598	-747.6442260742188	701.1842041015625	-12.44570350646973	-956.3494262695312	52.87075042724609	39.90583038330078	-882.319580078125	328.3557434082031	-23.96040534973145	-1013.425231933594	39.39469528198242	-141.9546966552734	-1045.505249023438	44.82690811157227	-67.83287048339844	-949.2724609375	49.12240219116211	-42.93082046508789	-1012.035400390625	43.11020660400391	110.9873428344727	-578.2716064453125	799.0009765625	-65.68712615966797	-1145.632568359375	677.1752319335938	1.834763407707214	nan	nan	nan	nan	nan	nan	
254	2.53	-854.8041381835938	965.3650512695312	130.466796875	-986.3028564453125	962.6707763671875	102.4529418945312	-910.8541259765625	1051.13134765625	114.6458511352539	-833.4473266601562	1196.228393554688	-118.136116027832	-918.372314453125	1153.33056640625	117.5000076293945	-906.284423828125	1400.764404296875	72.74659729003906	-847.145263671875	1316.365600585938	-68.52626037597656	-866.2075805664062	1254.011596679688	141.0830993652344	-1007.61572265625	1369.635498046875	51.92097854614258	-1024.618286132812	1380.54248046875	-48.4023323059082	-1104.918212890625	1271.86083984375	-28.36953926086426	-1149.00244140625	1080.300537109375	-15.58431434631348	-1102.004760742188	1062.979858398438	54.3968505859375	-1118.67724609375	848.8079223632812	-52.27682495117188	-1192.355834960938	854.9307250976562	-16.76581382751465	-1170.433349609375	977.7627563476562	-13.53670501708984	-1193.757202148438	768.1848754882812	-4.228516578674316	-1146.60302734375	750.3677368164062	-43.95202255249023	-743.2401123046875	1374.800659179688	80.98861694335938	-699.1802368164062	1311.349365234375	122.894157409668	-660.4472045898438	1052.109985351562	154.4062652587891	-752.240234375	1038.443725585938	133.0981903076172	-612.093994140625	897.7185668945312	-33.5755615234375	-566.3646850585938	873.4276123046875	19.32502746582031	-628.7984008789062	997.3229370117188	122.9132537841797	-578.3880615234375	738.3739624023438	-95.08809661865234	-551.3748168945312	792.7840576171875	-16.78060913085938	-811.7440185546875	1568.945434570312	91.00871276855469	-849.7064208984375	1599.2353515625	-102.6995544433594	-754.4713134765625	1586.325561523438	-28.82508850097656	-947.2799072265625	1583.026977539062	7.872183799743652	-1077.060913085938	974.1144409179688	-10.36244297027588	-724.6157836914062	933.38330078125	79.89073944091797	-741.0640869140625	945.0586547851562	-62.45744323730469	-996.8969116210938	962.410888671875	-114.3761138916016	-1040.977416992188	514.843017578125	-234.8913421630859	-1052.681518554688	637.8809814453125	-180.1965789794922	-1160.299438476562	149.3919982910156	7.498847007751465	-1114.720947265625	322.1720886230469	-121.3355178833008	-1088.800048828125	59.63862991333008	-176.3911590576172	-1061.656494140625	78.85820007324219	-99.59574890136719	-1167.307861328125	98.79817199707031	-107.9426651000977	-1109.867797851562	150.9339141845703	51.38842010498047	-838.0289306640625	449.1051635742188	-12.87311172485352	-747.3884887695312	700.7617797851562	-16.2003059387207	-956.4813842773438	52.86114501953125	39.86301422119141	-882.0160522460938	327.8919067382812	-26.20466995239258	-1013.416259765625	39.35818862915039	-141.9873809814453	-1045.362915039062	44.89435958862305	-67.98219299316406	-949.3580322265625	49.0493278503418	-42.93630981445312	-1012.117065429688	43.32024002075195	111.0434646606445	-571.2734375	809.254638671875	-80.76449584960938	-1143.836547851562	677.7479858398438	3.468670845031738	nan	nan	nan	nan	nan	nan	
255	2.54	-856.773681640625	965.1900634765625	121.7493896484375	-987.8863525390625	962.662841796875	91.91109466552734	-912.6846313476562	1051.035522460938	105.6101837158203	-829.7554321289062	1195.691284179688	-126.0268402099609	-919.608154296875	1153.369506835938	108.4538421630859	-905.9168090820312	1400.604858398438	62.93419647216797	-844.4832763671875	1315.877685546875	-76.94812774658203	-867.2947998046875	1254.182006835938	132.4911499023438	-1006.921203613281	1369.54150390625	40.441162109375	-1022.36328125	1379.935668945312	-60.17238235473633	-1103.100463867188	1271.722534179688	-39.81338119506836	-1147.3076171875	1080.404052734375	-24.10620498657227	-1101.212280273438	1064.389892578125	46.81283569335938	-1116.180053710938	848.042236328125	-55.55270767211914	-1190.769653320312	854.9722290039062	-21.68655395507812	-1168.802612304688	977.8759155273438	-20.46029090881348	-1192.635864257812	768.5382690429688	-7.226448535919189	-1144.031005859375	749.7098999023438	-45.27622604370117	-743.1856689453125	1374.811767578125	74.17394256591797	-699.603759765625	1311.376953125	116.9719161987305	-659.345947265625	1052.041870117188	147.6504974365234	-750.7822265625	1037.843505859375	125.3602828979492	-607.5178833007812	905.0064697265625	-44.73097610473633	-561.9485473632812	879.3037109375	7.561887264251709	-626.791259765625	998.6939086914062	115.0579223632812	-570.1549682617188	749.1383666992188	-112.5978393554688	-545.1148071289062	800.5665893554688	-31.71042633056641	-812.0513916015625	1569.0390625	82.31977844238281	-847.3270874023438	1598.779541015625	-111.9982070922852	-753.1297607421875	1586.333251953125	-36.73829650878906	-946.4360961914062	1582.452514648438	-2.779015779495239	-1073.80419921875	971.83544921875	-25.47504234313965	-725.958984375	932.83056640625	75.34920501708984	-738.682373046875	944.6143188476562	-67.44462585449219	-993.133056640625	962.510986328125	-125.3964920043945	-1031.98046875	516.521484375	-250.3221282958984	-1045.883666992188	639.083984375	-194.7656860351562	-1155.61083984375	138.7210845947266	-28.78870010375977	-1107.7880859375	318.1049499511719	-147.6107788085938	-1076.041625976562	60.02184677124023	-214.2654266357422	-1052.064208984375	75.28663635253906	-135.7752380371094	-1157.715454101562	94.34880828857422	-146.8970336914062	-1107.006591796875	138.6050872802734	17.0331916809082	-837.882080078125	448.63330078125	-16.2209644317627	-747.09326171875	700.24951171875	-20.2837085723877	-956.6116943359375	52.8654670715332	39.8101692199707	-881.7886962890625	327.3473815917969	-28.85512351989746	-1013.412231445312	39.29009246826172	-142.0353393554688	-1045.356689453125	44.76193618774414	-68.00654602050781	-949.4467163085938	48.97867965698242	-42.94535064697266	-1012.201477050781	43.54249954223633	111.092155456543	-564.3856201171875	819.463623046875	-95.16699981689453	-1142.032104492188	678.3826293945312	4.022517204284668	nan	nan	nan	nan	nan	nan	
256	2.55	-858.4906005859375	964.926513671875	112.6859664916992	-989.1756591796875	962.50927734375	81.09495544433594	-914.4383544921875	1050.7900390625	96.47331237792969	-826.0441284179688	1195.015258789062	-133.8967742919922	-920.7488403320312	1153.233154296875	99.33409881591797	-905.4591064453125	1400.306274414062	53.13885498046875	-841.7214965820312	1315.239135742188	-85.33767700195312	-868.307373046875	1254.181274414062	123.8823547363281	-1006.066955566406	1369.318481445312	29.01670455932617	-1019.942260742188	1379.204467773438	-71.86105346679688	-1101.144775390625	1271.478393554688	-51.22587203979492	-1145.483154296875	1080.441772460938	-32.6586799621582	-1100.266845703125	1065.718139648438	39.13251876831055	-1113.570190429688	847.3693237304688	-59.22283554077148	-1189.04443359375	854.9797973632812	-26.94062232971191	-1167.038330078125	977.9337158203125	-27.52791404724121	-1191.225463867188	768.8494873046875	-10.77004909515381	-1141.494506835938	749.2162475585938	-47.36750411987305	-743.0271606445312	1374.609985351562	67.35596466064453	-699.9678344726562	1311.167236328125	111.0097885131836	-658.2705078125	1051.74951171875	140.8670806884766	-749.32958984375	1037.082275390625	117.569580078125	-603.028076171875	912.066162109375	-55.49281692504883	-557.6083984375	885.0110473632812	-3.790543556213379	-624.81591796875	999.8397216796875	107.2919387817383	-562.1271362304688	759.8638305664062	-129.2787475585938	-538.9747314453125	808.2784423828125	-46.01731872558594	-812.2916870117188	1568.963745117188	73.60430908203125	-844.8635864257812	1598.155639648438	-121.2773666381836	-751.7097778320312	1586.198608398438	-44.65127563476562	-945.4891967773438	1581.684692382812	-13.44419765472412	-1070.42333984375	969.5537109375	-40.04084777832031	-727.1875	932.1942749023438	70.63838195800781	-736.1696166992188	944.1500244140625	-72.54582214355469	-989.2652587890625	962.3639526367188	-136.3957366943359	-1023.097717285156	517.7691040039062	-264.95166015625	-1039.171142578125	639.9307861328125	-208.7044677734375	-1149.3701171875	127.9722213745117	-65.56565093994141	-1100.177124023438	313.7933654785156	-173.7065734863281	-1061.375244140625	60.64555740356445	-251.5429840087891	-1040.68701171875	71.99015808105469	-171.7283020019531	-1146.270263671875	89.84812927246094	-185.7516021728516	-1102.6240234375	126.2930679321289	-17.90884017944336	-837.7767944335938	448.0935668945312	-20.03068542480469	-746.6987915039062	699.6127319335938	-24.65928077697754	-956.7318115234375	52.895263671875	39.74847030639648	-881.6512451171875	326.7061462402344	-31.88943099975586	-1013.393127441406	39.20035552978516	-142.0933837890625	-1045.47607421875	44.45207214355469	-67.91434478759766	-949.5069580078125	48.92273712158203	-42.96356964111328	-1012.281921386719	43.79069900512695	111.1214599609375	-557.68798828125	829.5219116210938	-108.9126968383789	-1140.201171875	678.9862670898438	3.501240730285645	nan	nan	nan	nan	nan	nan	
